<svg width="26" height="26" viewBox="0 0 26 26" fill="none" xmlns="http://www.w3.org/2000/svg">
<path d="M15.1895 2.73301L17.3187 6.99145C17.609 7.58424 18.3833 8.15284 19.0366 8.26172L22.8958 8.90291C25.3637 9.31423 25.9444 11.1047 24.166 12.871L21.1658 15.8713C20.6577 16.3794 20.3794 17.3593 20.5367 18.061L21.3956 21.775C22.0731 24.7148 20.5125 25.852 17.9115 24.3155L14.2942 22.1742C13.6409 21.7871 12.5642 21.7871 11.8989 22.1742L8.2816 24.3155C5.69267 25.852 4.11995 24.7027 4.79743 21.775L5.65637 18.061C5.81364 17.3593 5.53539 16.3794 5.02729 15.8713L2.02702 12.871C0.260741 11.1047 0.829339 9.31423 3.2973 8.90291L7.1565 8.26172C7.79769 8.15284 8.57195 7.58424 8.8623 6.99145L10.9915 2.73301C12.1529 0.422329 14.0402 0.422329 15.1895 2.73301Z" stroke="#808686" stroke-linecap="round" stroke-linejoin="round"/>
</svg>
